<svg xmlns="http://www.w3.org/2000/svg" viewBox="0 0 96 101" role="img" aria-label="Latte — cat-mark"><rect width="96" height="101" rx="17" fill="#13100c"/><g transform="translate(8 8)" fill="#e0673f" shape-rendering="crispEdges"><rect x="16" y="0" width="3" height="1"/><rect x="16" y="1" width="5" height="1"/><rect x="61" y="1" width="1" height="1"/><rect x="15" y="2" width="7" height="1"/><rect x="58" y="2" width="6" height="1"/><rect x="15" y="3" width="9" height="1"/><rect x="57" y="3" width="7" height="1"/><rect x="15" y="4" width="10" height="1"/><rect x="56" y="4" width="8" height="1"/><rect x="15" y="5" width="11" height="1"/><rect x="55" y="5" width="9" height="1"/><rect x="15" y="6" width="11" height="1"/><rect x="54" y="6" width="10" height="1"/><rect x="16" y="7" width="11" height="1"/><rect x="53" y="7" width="11" height="1"/><rect x="16" y="8" width="12" height="1"/><rect x="52" y="8" width="12" height="1"/><rect x="16" y="9" width="13" height="1"/><rect x="51" y="9" width="12" height="1"/><rect x="16" y="10" width="13" height="1"/><rect x="50" y="10" width="13" height="1"/><rect x="16" y="11" width="15" height="1"/><rect x="48" y="11" width="15" height="1"/><rect x="16" y="12" width="18" height="1"/><rect x="46" y="12" width="17" height="1"/><rect x="16" y="13" width="47" height="1"/><rect x="16" y="14" width="46" height="1"/><rect x="17" y="15" width="45" height="1"/><rect x="17" y="16" width="44" height="1"/><rect x="17" y="17" width="44" height="1"/><rect x="17" y="18" width="44" height="1"/><rect x="17" y="19" width="44" height="1"/><rect x="17" y="20" width="44" height="1"/><rect x="17" y="21" width="43" height="1"/><rect x="17" y="22" width="43" height="1"/><rect x="17" y="23" width="43" height="1"/><rect x="17" y="24" width="43" height="1"/><rect x="16" y="25" width="45" height="1"/><rect x="15" y="26" width="46" height="1"/><rect x="15" y="27" width="47" height="1"/><rect x="15" y="28" width="47" height="1"/><rect x="15" y="29" width="48" height="1"/><rect x="15" y="30" width="48" height="1"/><rect x="15" y="31" width="48" height="1"/><rect x="15" y="32" width="48" height="1"/><rect x="15" y="33" width="48" height="1"/><rect x="15" y="34" width="48" height="1"/><rect x="15" y="35" width="48" height="1"/><rect x="15" y="36" width="48" height="1"/><rect x="15" y="37" width="48" height="1"/><rect x="15" y="38" width="48" height="1"/><rect x="15" y="39" width="48" height="1"/><rect x="15" y="40" width="48" height="1"/><rect x="15" y="41" width="49" height="1"/><rect x="15" y="42" width="49" height="1"/><rect x="15" y="43" width="50" height="1"/><rect x="16" y="44" width="50" height="1"/><rect x="16" y="45" width="50" height="1"/><rect x="16" y="46" width="51" height="1"/><rect x="15" y="47" width="52" height="1"/><rect x="14" y="48" width="54" height="1"/><rect x="13" y="49" width="55" height="1"/><rect x="13" y="50" width="55" height="1"/><rect x="13" y="51" width="55" height="1"/><rect x="12" y="52" width="1" height="1"/><rect x="16" y="52" width="53" height="1"/><rect x="15" y="53" width="54" height="1"/><rect x="15" y="54" width="54" height="1"/><rect x="14" y="55" width="55" height="1"/><rect x="13" y="56" width="57" height="1"/><rect x="13" y="57" width="58" height="1"/><rect x="13" y="58" width="59" height="1"/><rect x="13" y="59" width="60" height="1"/><rect x="13" y="60" width="60" height="1"/><rect x="13" y="61" width="61" height="1"/><rect x="13" y="62" width="61" height="1"/><rect x="12" y="63" width="63" height="1"/><rect x="12" y="64" width="63" height="1"/><rect x="11" y="65" width="64" height="1"/><rect x="11" y="66" width="64" height="1"/><rect x="11" y="67" width="64" height="1"/><rect x="11" y="68" width="64" height="1"/><rect x="10" y="69" width="65" height="1"/><rect x="10" y="70" width="65" height="1"/><rect x="10" y="71" width="64" height="1"/><rect x="10" y="72" width="64" height="1"/><rect x="9" y="73" width="65" height="1"/><rect x="9" y="74" width="64" height="1"/><rect x="9" y="75" width="63" height="1"/><rect x="9" y="76" width="62" height="1"/><rect x="8" y="77" width="62" height="1"/><rect x="8" y="78" width="61" height="1"/><rect x="7" y="79" width="61" height="1"/><rect x="6" y="80" width="28" height="1"/><rect x="41" y="80" width="26" height="1"/><rect x="6" y="81" width="26" height="1"/><rect x="42" y="81" width="23" height="1"/><rect x="5" y="82" width="26" height="1"/><rect x="43" y="82" width="20" height="1"/><rect x="5" y="83" width="25" height="1"/><rect x="46" y="83" width="14" height="1"/><rect x="5" y="84" width="25" height="1"/></g></svg>
